<svg width="12" height="12" viewBox="0 0 12 12" fill="none" xmlns="http://www.w3.org/2000/svg">
<path d="M0.637187 6.29457L2.04578 0.905174C2.08891 0.740133 2.23801 0.625 2.40859 0.625H9.59141C9.76199 0.625 9.91109 0.740133 9.95422 0.905174L11.3628 6.29457C11.3709 6.32552 11.375 6.35739 11.375 6.38939V11C11.375 11.2071 11.2071 11.375 11 11.375H1C0.792893 11.375 0.625 11.2071 0.625 11V6.38939C0.625 6.35739 0.629096 6.32553 0.637187 6.29457Z" stroke="#3A6DD9" stroke-width="1.25"/>
<path d="M2 7.36353H3.05186C3.64421 7.36353 4.19736 7.65956 4.52593 8.15242V8.15242C5.22717 9.20429 6.77283 9.20429 7.47407 8.15242V8.15242C7.80264 7.65956 8.35579 7.36353 8.94814 7.36353H10" stroke="#3A6DD9" stroke-width="1.25"/>
</svg>
