<svg width="24" height="24" viewBox="0 0 24 24" fill="none" xmlns="http://www.w3.org/2000/svg">
<circle cx="12" cy="12" r="8.5" stroke="white"/>
<path d="M12.3212 13.7991H11.1759C11.18 13.412 11.2149 13.0955 11.2806 12.8495C11.3504 12.5995 11.4633 12.3717 11.6193 12.1661C11.7752 11.9604 11.9826 11.7266 12.2412 11.4645C12.43 11.2749 12.6024 11.0975 12.7584 10.9322C12.9185 10.7629 13.0478 10.5814 13.1463 10.3879C13.2449 10.1903 13.2941 9.95439 13.2941 9.68019C13.2941 9.40197 13.2428 9.16205 13.1402 8.96043C13.0417 8.75882 12.8939 8.60358 12.6968 8.49471C12.5039 8.38584 12.2638 8.3314 11.9764 8.3314C11.7383 8.3314 11.5125 8.37374 11.2991 8.45842C11.0856 8.54309 10.9132 8.67414 10.7818 8.85156C10.6505 9.02495 10.5827 9.25277 10.5786 9.53503H9.43945C9.44766 9.07939 9.56261 8.68826 9.78428 8.36164C10.0101 8.03503 10.3138 7.78503 10.6956 7.61164C11.0774 7.43826 11.5043 7.35156 11.9764 7.35156C12.4977 7.35156 12.9411 7.4443 13.3064 7.62979C13.6759 7.81527 13.9571 8.0814 14.15 8.42818C14.343 8.77092 14.4395 9.17818 14.4395 9.64995C14.4395 10.0129 14.3635 10.3475 14.2116 10.654C14.0638 10.9564 13.873 11.2407 13.639 11.5068C13.405 11.7729 13.1566 12.027 12.8939 12.2689C12.6681 12.4745 12.5162 12.7064 12.4382 12.9645C12.3602 13.2225 12.3212 13.5008 12.3212 13.7991ZM11.1266 15.7165C11.1266 15.535 11.1841 15.3818 11.2991 15.2568C11.414 15.1318 11.5803 15.0693 11.7978 15.0693C12.0195 15.0693 12.1878 15.1318 12.3028 15.2568C12.4177 15.3818 12.4752 15.535 12.4752 15.7165C12.4752 15.8899 12.4177 16.0391 12.3028 16.1641C12.1878 16.2891 12.0195 16.3516 11.7978 16.3516C11.5803 16.3516 11.414 16.2891 11.2991 16.1641C11.1841 16.0391 11.1266 15.8899 11.1266 15.7165Z" fill="white"/>
</svg>
