<svg width="24" height="24" viewBox="-2 -2 28 28" fill="none" xmlns="http://www.w3.org/2000/svg">
<path d="M5 19.5V4.5" stroke="#808080"/>
<path d="M20 12.691V5.43426C20 5.03491 19.5364 4.76821 19.1652 4.91538C18.4245 5.209 17.3214 5.5 16 5.5C13.5 5.5 11 4 9 4C7.58933 4 6.07502 4.51822 5.27949 4.86932C5.10622 4.94579 5 5.11963 5 5.30902V14C5.16667 13.5 6.2 12.5 9 12.5C12.5 12.5 14 14 16 14C17.4107 14 18.925 13.4818 19.7205 13.1307C19.8938 13.0542 20 12.8804 20 12.691Z" stroke="#808080"/>
</svg>
